<?xml version="1.0" encoding="UTF-8" standalone="no"?>
<!-- Generator: Adobe Illustrator 21.1.0, SVG Export Plug-In . SVG Version: 6.00 Build 0)  -->

<svg
   xmlns:dc="http://purl.org/dc/elements/1.1/"
   xmlns:cc="http://creativecommons.org/ns#"
   xmlns:rdf="http://www.w3.org/1999/02/22-rdf-syntax-ns#"
   xmlns:svg="http://www.w3.org/2000/svg"
   xmlns="http://www.w3.org/2000/svg"
   xmlns:sodipodi="http://sodipodi.sourceforge.net/DTD/sodipodi-0.dtd"
   xmlns:inkscape="http://www.inkscape.org/namespaces/inkscape"
   version="1.1"
   id="Layer_1"
   x="0px"
   y="0px"
   viewBox="0 0 160.06513 54.883709"
   xml:space="preserve"
   sodipodi:docname="logo.svg"
   inkscape:version="0.92.4 (5da689c313, 2019-01-14)"
   width="160.06512"
   height="54.883709"><metadata
   id="metadata3887"><rdf:RDF><cc:Work
       rdf:about=""><dc:format>image/svg+xml</dc:format><dc:type
         rdf:resource="http://purl.org/dc/dcmitype/StillImage" /><dc:title></dc:title></cc:Work></rdf:RDF></metadata><defs
   id="defs3885" /><sodipodi:namedview
   pagecolor="#ffffff"
   bordercolor="#666666"
   borderopacity="1"
   objecttolerance="10"
   gridtolerance="10"
   guidetolerance="10"
   inkscape:pageopacity="0"
   inkscape:pageshadow="2"
   inkscape:window-width="1600"
   inkscape:window-height="836"
   id="namedview3883"
   showgrid="false"
   inkscape:zoom="3.225"
   inkscape:cx="79.832559"
   inkscape:cy="28.682158"
   inkscape:window-x="0"
   inkscape:window-y="27"
   inkscape:window-maximized="1"
   inkscape:current-layer="Layer_1" />
<style
   type="text/css"
   id="style3828">
	.st0{fill:#FFFFFF;}
</style>
<rect
   x="0"
   width="160.06512"
   height="54.883709"
   id="rect3830"
   y="0"
   style="stroke-width:0.38289899" />
<g
   id="g3880"
   transform="translate(-70.167441,-73.798449)">
	<g
   id="g3842">
		<polygon
   class="st0"
   points="83.7,82.9 81.1,76.8 74.5,76.8 77.3,82.9 "
   id="polygon3832"
   style="fill:#ffffff" />
		<polygon
   class="st0"
   points="91.1,112.4 107.6,76.8 101,76.8 91.1,100.5 85.9,88.2 79.8,88.2 "
   id="polygon3834"
   style="fill:#ffffff" />
		<polygon
   class="st0"
   points="125.3,81.8 140.2,81.8 140.2,76.8 119.7,76.8 119.7,110.6 140.2,110.6 140.2,105.5 125.3,105.5 125.3,94.9 134.2,94.9 134.2,90 125.3,90 "
   id="polygon3836"
   style="fill:#ffffff" />
		<path
   class="st0"
   d="m 177.8,81.5 c -3.2,-3.1 -7.4,-4.6 -12.5,-4.6 h -10.9 v 5.4 h 5.8 v 0 h 5 c 3.4,0 6.2,1 8.4,3 2.2,2 3.2,4.8 3.2,8.5 0,3.7 -1.1,6.5 -3.2,8.5 -2.2,2 -4.9,3 -8.4,3 h -0.3 v 0.1 h -10.4 v 5.2 h 10.9 c 5.2,0 9.4,-1.5 12.5,-4.6 3.2,-3.1 4.8,-7.2 4.8,-12.2 -0.1,-5.2 -1.7,-9.3 -4.9,-12.3 z"
   id="path3838"
   inkscape:connector-curvature="0"
   style="fill:#ffffff" />
		<polygon
   class="st0"
   points="206.6,101.9 206.6,97.1 204.3,97.1 208.9,86.4 213.5,97.1 210.6,97.1 210.6,101.9 215.1,101.9 219,110.6 225.4,110.6 208.9,75 192.4,110.6 198.8,110.6 202.7,101.9 "
   id="polygon3840"
   style="fill:#ffffff" />
	</g>
	<g
   id="g3878">
		<path
   class="st0"
   d="m 75.1,118.8 h 1 v 2.3 h 3 v -2.3 h 1 v 6 h -1 V 122 h -3 v 2.7 h -1 z"
   id="path3844"
   inkscape:connector-curvature="0"
   style="fill:#ffffff" />
		<path
   class="st0"
   d="m 85.3,123.2 -0.7,1.5 h -1.1 l 2.9,-6.3 2.9,6.3 h -1.1 l -0.7,-1.5 z m 0.3,-0.8 h 1.6 l -0.8,-1.9 z"
   id="path3846"
   inkscape:connector-curvature="0"
   style="fill:#ffffff" />
		<path
   class="st0"
   d="m 97.1,118.8 h 1 v 6.3 l -4.4,-4.2 v 4 h -1 v -6.3 l 4.4,4.3 z"
   id="path3848"
   inkscape:connector-curvature="0"
   style="fill:#ffffff" />
		<path
   class="st0"
   d="m 104.1,124.7 h -1.9 v -6 h 1.9 c 0.9,0 1.7,0.3 2.2,0.8 0.6,0.5 0.8,1.3 0.8,2.2 0,0.9 -0.3,1.6 -0.8,2.2 -0.6,0.6 -1.3,0.8 -2.2,0.8 z m -0.9,-0.9 h 0.9 c 0.6,0 1.1,-0.2 1.5,-0.5 0.4,-0.4 0.6,-0.9 0.6,-1.5 0,-0.7 -0.2,-1.2 -0.6,-1.5 -0.4,-0.4 -0.9,-0.5 -1.5,-0.5 h -0.9 z"
   id="path3850"
   inkscape:connector-curvature="0"
   style="fill:#ffffff" />
		<path
   class="st0"
   d="m 117.2,122.5 v 2.3 h -1 v -6 h 1.8 c 0.6,0 1.2,0.2 1.6,0.5 0.4,0.3 0.6,0.8 0.6,1.4 0,0.6 -0.2,1 -0.6,1.4 -0.4,0.3 -0.9,0.5 -1.6,0.5 h -0.8 z m 0,-0.9 h 0.8 c 0.4,0 0.6,-0.1 0.8,-0.2 0.2,-0.2 0.3,-0.4 0.3,-0.7 0,-0.3 -0.1,-0.6 -0.3,-0.7 -0.2,-0.1 -0.5,-0.3 -0.8,-0.3 h -0.8 z"
   id="path3852"
   inkscape:connector-curvature="0"
   style="fill:#ffffff" />
		<path
   class="st0"
   d="m 123.5,121.8 c 0,-0.9 0.3,-1.6 0.9,-2.2 0.6,-0.6 1.3,-0.9 2.2,-0.9 0.9,0 1.6,0.3 2.2,0.9 0.6,0.6 0.9,1.3 0.9,2.2 0,0.9 -0.3,1.6 -0.9,2.2 -0.6,0.6 -1.3,0.9 -2.2,0.9 -0.9,0 -1.6,-0.3 -2.2,-0.9 -0.6,-0.6 -0.9,-1.3 -0.9,-2.2 z m 1.6,-1.6 c -0.4,0.4 -0.6,0.9 -0.6,1.5 0,0.6 0.2,1.1 0.6,1.5 0.4,0.4 0.9,0.6 1.5,0.6 0.6,0 1.1,-0.2 1.5,-0.6 0.4,-0.4 0.6,-0.9 0.6,-1.5 0,-0.6 -0.2,-1.1 -0.6,-1.5 -0.4,-0.4 -0.9,-0.6 -1.5,-0.6 -0.6,0 -1.1,0.2 -1.5,0.6 z"
   id="path3854"
   inkscape:connector-curvature="0"
   style="fill:#ffffff" />
		<path
   class="st0"
   d="m 133.4,118.8 h 1 v 4 c 0,0.4 0.1,0.7 0.3,0.9 0.2,0.2 0.5,0.3 0.9,0.3 0.4,0 0.7,-0.1 0.9,-0.3 0.2,-0.2 0.3,-0.5 0.3,-0.9 v -4 h 1 v 4 c 0,0.6 -0.2,1.2 -0.6,1.5 -0.4,0.4 -0.9,0.6 -1.6,0.6 -0.7,0 -1.2,-0.2 -1.6,-0.6 -0.4,-0.4 -0.6,-0.9 -0.6,-1.5 z"
   id="path3856"
   inkscape:connector-curvature="0"
   style="fill:#ffffff" />
		<path
   class="st0"
   d="m 142.7,122.5 v 2.3 h -1 v -6 h 1.8 c 0.6,0 1.2,0.2 1.6,0.5 0.4,0.3 0.6,0.8 0.6,1.4 0,0.4 -0.1,0.8 -0.3,1.1 -0.2,0.3 -0.6,0.5 -1,0.6 l 1.7,2.4 h -1.2 l -1.5,-2.3 z m 0,-0.8 h 0.8 c 0.4,0 0.6,-0.1 0.8,-0.3 0.2,-0.2 0.3,-0.4 0.3,-0.7 0,-0.3 -0.1,-0.6 -0.3,-0.7 -0.2,-0.2 -0.5,-0.3 -0.8,-0.3 h -0.8 z"
   id="path3858"
   inkscape:connector-curvature="0"
   style="fill:#ffffff" />
		<path
   class="st0"
   d="m 150.5,122 v 1.9 h 2.6 v 0.9 h -3.6 v -6 h 3.6 v 0.9 h -2.6 v 1.5 h 2.5 v 0.9 h -2.5 z"
   id="path3860"
   inkscape:connector-curvature="0"
   style="fill:#ffffff" />
		<path
   class="st0"
   d="m 159.1,124.7 h -1.9 v -6 h 1.9 c 0.9,0 1.7,0.3 2.2,0.8 0.6,0.5 0.8,1.3 0.8,2.2 0,0.9 -0.3,1.6 -0.8,2.2 -0.6,0.6 -1.3,0.8 -2.2,0.8 z m -0.9,-0.9 h 0.9 c 0.6,0 1.1,-0.2 1.5,-0.5 0.4,-0.4 0.6,-0.9 0.6,-1.5 0,-0.7 -0.2,-1.2 -0.6,-1.5 -0.4,-0.4 -0.9,-0.5 -1.5,-0.5 h -0.9 z"
   id="path3862"
   inkscape:connector-curvature="0"
   style="fill:#ffffff" />
		<path
   class="st0"
   d="m 171.1,118.8 h 1 v 6 h -1 z"
   id="path3864"
   inkscape:connector-curvature="0"
   style="fill:#ffffff" />
		<path
   class="st0"
   d="m 180.6,118.8 h 1 v 6.3 l -4.4,-4.2 v 4 h -1 v -6.3 l 4.4,4.3 z"
   id="path3866"
   inkscape:connector-curvature="0"
   style="fill:#ffffff" />
		<path
   class="st0"
   d="m 192,121.1 -0.4,3.6 h -1 l 0.8,-6.3 2.4,4.1 2.5,-4.1 0.8,6.3 h -1 l -0.4,-3.6 -1.8,3.1 z"
   id="path3868"
   inkscape:connector-curvature="0"
   style="fill:#ffffff" />
		<path
   class="st0"
   d="m 200.8,118.8 h 1 v 6 h -1 z"
   id="path3870"
   inkscape:connector-curvature="0"
   style="fill:#ffffff" />
		<path
   class="st0"
   d="m 207.1,123.2 -0.7,1.5 h -1.1 l 2.9,-6.3 2.9,6.3 H 210 l -0.7,-1.5 z m 0.3,-0.8 h 1.6 l -0.8,-1.9 z"
   id="path3872"
   inkscape:connector-curvature="0"
   style="fill:#ffffff" />
		<path
   class="st0"
   d="m 215.6,121.1 -0.4,3.6 h -1 l 0.8,-6.3 2.4,4.1 2.5,-4.1 0.8,6.3 h -1 l -0.4,-3.6 -1.8,3.1 z"
   id="path3874"
   inkscape:connector-curvature="0"
   style="fill:#ffffff" />
		<path
   class="st0"
   d="m 224.4,118.8 h 1 v 6 h -1 z"
   id="path3876"
   inkscape:connector-curvature="0"
   style="fill:#ffffff" />
	</g>
</g>
</svg>